<?xml version="1.0" encoding="utf-8" ?>
<svg baseProfile="full" height="4384" version="1.1" width="6576" xmlns="http://www.w3.org/2000/svg" xmlns:ev="http://www.w3.org/2001/xml-events" xmlns:xlink="http://www.w3.org/1999/xlink"><defs /><rect fill="black" height="100%" width="100%" x="0" y="0" /><polygon fill="white" points="3288.0,2192.0 3088.761060381651,2209.431148549532 3071.3299118321193,2010.1922089311824 3270.568851450468,1992.7610603816509" /><polygon fill="white" points="3288.0,2192.0 3487.238939618349,2174.568851450468 3504.6700881678807,2373.8077910688176 3305.431148549532,2391.238939618349" /><polygon fill="white" points="1789.1509434859765,2192.0 1589.9120038676274,2209.431148549532 1572.4808553180958,2010.1922089311824 1771.7197949364452,1992.7610603816509" /><polygon fill="white" points="1789.1509434859765,2192.0 1988.389883104326,2174.568851450468 2005.8210316538573,2373.8077910688176 1806.5820920355081,2391.238939618349" /><polygon fill="white" points="4786.849056514024,2192.0 4587.610116895674,2209.431148549532 4570.178968346143,2010.1922089311824 4769.417907964492,1992.7610603816509" /><polygon fill="white" points="4786.849056514024,2192.0 4986.087996132373,2174.568851450468 5003.519144681904,2373.8077910688176 4804.280205063555,2391.238939618349" /><polygon fill="white" points="3288.0,1455.4608120680487 3088.761060381651,1472.8919606175805 3071.3299118321193,1273.6530209992316 3270.568851450468,1256.2218724496997" /><polygon fill="white" points="3288.0,1455.4608120680487 3487.238939618349,1438.0296635185173 3504.6700881678807,1637.2686031368662 3305.431148549532,1654.699751686398" /><polygon fill="white" points="3288.0,2928.5391879319513 3088.761060381651,2945.9703364814827 3071.3299118321193,2746.731396863134 3270.568851450468,2729.300248313602" /><polygon fill="white" points="3288.0,2928.5391879319513 3487.238939618349,2911.1080393824195 3504.6700881678807,3110.3469790007684 3305.431148549532,3127.7781275503003" /></svg>