<?xml version="1.0" encoding="utf-8" ?>
<svg baseProfile="full" height="3000" version="1.1" width="3000" xmlns="http://www.w3.org/2000/svg" xmlns:ev="http://www.w3.org/2001/xml-events" xmlns:xlink="http://www.w3.org/1999/xlink"><defs /><rect fill="black" height="100%" width="100%" x="0" y="0" /><polygon fill="white" points="1500.0,1500.0 1618.2219921778606,1489.5255593186705 1628.1302773905554,1609.1947861030337 1509.9684502278737,1619.6315375533254" /><polygon fill="white" points="1500.0,1500.0 1381.1899570100154,1510.456243711442 1370.5342588291712,1391.0232772535364 1489.2323070034072,1380.3887276012385" /><polygon fill="white" points="2344.2913579164087,1500.0 2444.3233324417283,1489.919374508003 2452.104612568931,1604.8619380621958 2352.263482411415,1615.9952245591228" /><polygon fill="white" points="2344.2913579164087,1500.0 2240.5610417302973,1510.2518392833322 2230.6492585025408,1393.111298826012 2334.474994129915,1383.819158977741" /><polygon fill="white" points="624.1305107062004,1500.0 735.6276220173957,1489.8611281944477 745.5621477250922,1605.7099008146517 633.9333274991661,1614.7424549336722" /><polygon fill="white" points="624.1305107062004,1500.0 515.2447601562517,1509.9441750963683 506.04925344075014,1396.5813769528372 614.6786136262739,1385.449880553389" /><polygon fill="white" points="1494.7256558366732,1938.612359257233 1612.2042728290464,1928.5252539801513 1618.630886084939,2044.3404848355058 1501.7578847665116,2054.306252507843" /><polygon fill="white" points="1494.7256558366732,1938.612359257233 1376.7796447894248,1948.1130770983168 1368.4458283002364,1831.0124816078962 1486.849246475188,1821.2502278002362" /><polygon fill="white" points="1494.7256558366732,1061.387640742767 1611.6138866561678,1051.0775165857467 1624.8648025328016,1168.3243633089464 1507.4977815628079,1178.696081463805" /><polygon fill="white" points="1494.7256558366732,1061.387640742767 1377.1841276968753,1072.2543963144542 1364.439418051222,956.7189528753836 1481.3208044056626,945.7821473907559" /></svg>